# xmcd CD database file
#
# Track frame offsets:
#	183
#	14305
#	29093
#	40273
#	48343
#	66878
#	80120
#	96255
#	130193
#
# Disc length: 1876 seconds
#
# Revision: 0
# Processed by: cddbd v1.5.1PL0 Copyright (c) Steve Scherf et al.
# Submitted via: CDex 1.51
#
DISCID=79075209
DTITLE=Mike Scott - Sunflowers
DYEAR=1900
DGENRE=New Age
TTITLE0=Kiss the wind
TTITLE1=The return of pan
TTITLE2=I've been in the storm for you
TTITLE3=Sympathy for David Icke
TTITLE4=Spiritual city
TTITLE5=Love and death
TTITLE6=Good news
TTITLE7=The new life
TTITLE8=Ever to be near ye
EXTD=
EXTT0=
EXTT1=
EXTT2=
EXTT3=
EXTT4=
EXTT5=
EXTT6=
EXTT7=
EXTT8=
PLAYORDER=
